<svg width="33" height="33" viewBox="0 0 33 33" fill="none" xmlns="http://www.w3.org/2000/svg">
<g clip-path="url(#clip0)">
<path d="M9.64307 18.492C9.29807 18.492 9.01807 18.772 9.01807 19.117C9.01807 19.462 9.29807 19.742 9.64307 19.742C9.98807 19.742 10.2681 19.462 10.2681 19.117C10.2681 18.772 9.98807 18.492 9.64307 18.492Z" fill="white"/>
<path d="M9.64307 20.992C9.29788 20.992 9.01807 21.2718 9.01807 21.617V29.492C9.01807 29.8372 9.29788 30.117 9.64307 30.117C9.98825 30.117 10.2681 29.8372 10.2681 29.492V21.617C10.2681 21.2718 9.98819 20.992 9.64307 20.992Z" fill="white"/>
<path d="M26.9803 1.08677C26.9288 0.885831 26.7809 0.723518 26.5856 0.653581C26.3903 0.583706 26.1731 0.615143 26.0058 0.737643C25.3812 1.19483 22.2398 3.54652 21.7281 4.95165C21.424 5.78858 21.4931 6.70215 21.9015 7.47602C21.1352 8.57515 20.3415 10.0928 19.643 11.5756V1.24202C19.643 0.896831 19.3631 0.617018 19.018 0.617018H14.018C13.6728 0.617018 13.393 0.896831 13.393 1.24202V13.492H13.2808L12.2133 9.33896C12.2128 9.3369 12.2123 9.33484 12.2117 9.33278L11.2411 5.7109C11.241 5.71077 11.241 5.71065 11.241 5.71052C11.2353 5.68971 11.2285 5.66921 11.2208 5.64902C11.2184 5.64284 11.2155 5.6369 11.213 5.63077C11.2071 5.61671 11.201 5.60283 11.194 5.58921C11.1906 5.58258 11.187 5.57621 11.1833 5.56971C11.1763 5.5569 11.1688 5.54427 11.1608 5.53196C11.1568 5.52577 11.1526 5.51971 11.1483 5.51365C11.1398 5.50146 11.1308 5.48965 11.1213 5.47802C11.1187 5.47483 11.1166 5.47133 11.1139 5.46821L7.40514 1.09821C7.24989 0.915268 7.00364 0.837393 6.77145 0.897706C6.53927 0.958018 6.36208 1.14596 6.31552 1.38133L5.19489 7.04509C5.19408 7.04927 5.19389 7.05352 5.19314 7.05765C5.19027 7.07396 5.18789 7.09027 5.18633 7.10665C5.18564 7.11359 5.1852 7.12052 5.18477 7.12746C5.18383 7.14309 5.18345 7.15859 5.18364 7.17415C5.1837 7.1814 5.18377 7.18865 5.18414 7.1959C5.18489 7.21184 5.18645 7.22765 5.18845 7.24346C5.18927 7.24996 5.18977 7.2564 5.19077 7.26284C5.1942 7.2849 5.19858 7.30671 5.20433 7.32827L6.17383 10.9465L6.8242 13.5194C6.44483 13.5841 6.09514 13.7635 5.81733 14.0413C5.46314 14.3955 5.26802 14.8663 5.26802 15.367C5.26802 16.1817 5.79058 16.8765 6.51802 17.1345V29.492C6.51802 31.2152 7.91989 32.617 9.64302 32.617H22.143C23.8661 32.617 25.268 31.2152 25.268 29.492V17.1355C25.5285 17.0436 25.7675 16.8939 25.9687 16.6927C26.323 16.3385 26.518 15.8677 26.518 15.367C26.518 14.4538 25.8615 13.6913 24.9958 13.5258C25.4035 11.8693 25.6908 10.2231 25.7969 8.93146C26.6313 8.60877 27.2894 7.94634 27.6016 7.08896C28.1143 5.68109 27.174 1.84208 26.9803 1.08677ZM22.7331 8.47671C22.9915 8.68003 23.2818 8.84246 23.5961 8.95684C23.8965 9.06615 24.2086 9.12815 24.5226 9.14252C24.3973 10.3887 24.1101 11.9401 23.7156 13.492H20.1429C21.0973 11.3293 21.9789 9.62278 22.7331 8.47671ZM14.643 1.86702H18.393V3.30452H17.143C16.7979 3.30452 16.518 3.58433 16.518 3.92952C16.518 4.27471 16.7979 4.55452 17.143 4.55452H18.393V5.80452H17.143C16.7979 5.80452 16.518 6.08434 16.518 6.42952C16.518 6.77471 16.7979 7.05452 17.143 7.05452H18.393V8.30452H17.143C16.7979 8.30452 16.518 8.58434 16.518 8.92952C16.518 9.27471 16.7979 9.55453 17.143 9.55453H18.393V10.8045H17.143C16.7979 10.8045 16.518 11.0843 16.518 11.4295C16.518 11.7747 16.7979 12.0545 17.143 12.0545H18.393V13.492H14.643V1.86702ZM7.29027 2.89471L9.85445 5.91609C9.46902 6.40302 8.93977 6.75227 8.32883 6.9159C7.72027 7.07896 7.08995 7.04196 6.51458 6.81527L7.29027 2.89471ZM6.72633 8.17915C7.0032 8.23715 7.2852 8.26684 7.56877 8.26684C7.93008 8.26684 8.29389 8.21934 8.65227 8.12334C9.29214 7.95196 9.86852 7.63721 10.3481 7.2079L11.0035 9.65334L11.9902 13.492H8.10652L7.38452 10.6357C7.38383 10.6328 7.38308 10.63 7.38227 10.6272L6.72633 8.17915ZM24.018 29.492C24.018 30.5259 23.1769 31.367 22.143 31.367H9.64302C8.60914 31.367 7.76802 30.5259 7.76802 29.492V17.242H24.018V29.492ZM25.268 15.367C25.268 15.5338 25.203 15.6907 25.0848 15.8088C24.9666 15.927 24.8098 15.992 24.643 15.992H7.14302C6.79839 15.992 6.51802 15.7117 6.51802 15.367C6.51802 15.2003 6.58308 15.0433 6.7012 14.9253C6.81939 14.8071 6.97627 14.742 7.14302 14.742H12.7921C12.7933 14.742 12.7945 14.7422 12.7957 14.7422C12.7965 14.7422 12.7973 14.742 12.7981 14.742H19.1871C19.1881 14.742 19.1892 14.7422 19.1902 14.7422C19.1909 14.7422 19.1916 14.742 19.1923 14.742H24.1967C24.1975 14.742 24.1983 14.7422 24.199 14.7422C24.2003 14.7422 24.2015 14.742 24.2027 14.742H24.6431C24.9876 14.742 25.268 15.0224 25.268 15.367ZM26.427 6.66134C26.2064 7.26709 25.6983 7.7119 25.0663 7.8514C24.7205 7.92852 24.36 7.90459 24.0236 7.78227C23.6752 7.6554 23.3753 7.43102 23.1564 7.13359C23.1563 7.13346 23.1562 7.13334 23.1561 7.13321C22.7825 6.62615 22.6879 5.97027 22.9027 5.37908C23.137 4.73583 24.6615 3.36421 25.9884 2.32089C26.3534 3.97952 26.6608 6.01927 26.427 6.66134Z" fill="white"/>
</g>
<defs>
<clipPath id="clip0">
<rect width="32" height="32" fill="white" transform="translate(0.46814 0.617035)"/>
</clipPath>
</defs>
</svg>
