<svg width="33" height="33" viewBox="0 0 33 33" fill="none" xmlns="http://www.w3.org/2000/svg">
<g clip-path="url(#clip0)">
<path d="M32.4235 17.7035C32.3088 16.8751 31.4549 16.2124 29.8556 15.7282C28.5621 15.3395 26.9245 15.1037 25.1403 15.0655V8.26658C25.1403 8.1264 25.0957 7.99259 25.0065 7.88427C24.7962 7.14512 23.9424 6.54615 22.4641 6.10012C21.0304 5.66682 19.157 5.43106 17.1881 5.43106C15.2255 5.43106 13.3713 5.66682 11.9695 6.10012C10.8161 6.45695 9.43343 7.11963 9.43343 8.26021C9.43343 8.3303 9.4398 8.4004 9.45255 8.47049L9.52264 11.3761C5.38723 10.5796 1.39201 13.3004 0.60189 17.4422C0.512682 17.9074 0.468079 18.3853 0.468079 18.8632C0.468079 23.0687 3.88982 26.4904 8.09532 26.4904C9.84761 26.4904 11.5426 25.8851 12.9061 24.7827C14.1041 25.0631 15.5059 25.216 16.9906 25.2288C17.3155 26.9938 21.1387 27.803 24.707 27.803C26.6696 27.803 28.5175 27.5609 29.932 27.1212C31.0917 26.7644 32.4681 26.0953 32.4681 24.9548V17.952C32.4681 17.8691 32.4553 17.7799 32.4235 17.7035ZM12.3518 7.31716C13.6389 6.9221 15.3594 6.69908 17.1945 6.69908C19.0169 6.69908 20.801 6.9221 22.1009 7.31716C23.4836 7.73771 23.7831 8.171 23.7831 8.26021C23.7831 8.34942 23.4836 8.78909 22.0945 9.20326C20.801 9.59195 19.0169 9.82134 17.1945 9.82134C15.4358 9.82134 13.7664 9.61744 12.4983 9.24787C11.1284 8.8528 10.7461 8.41314 10.7142 8.27296C10.7142 8.26021 10.7142 8.25384 10.7078 8.25384C10.7142 8.16463 11.0073 7.73134 12.3518 7.31716ZM23.8659 9.8532V11.4844C23.8086 11.5736 23.7767 11.682 23.7831 11.7903C23.7831 11.8731 23.4836 12.3128 22.0945 12.7333C20.801 13.122 19.0105 13.3514 17.1881 13.3514C15.6142 13.3514 14.0722 13.1857 12.8488 12.8735C12.8297 12.8671 12.8169 12.8671 12.7978 12.8608C12.1925 12.3829 11.5234 12.0069 10.8034 11.7329L10.7588 9.93604C11.1985 10.1591 11.6572 10.3375 12.1351 10.4649C13.5179 10.8663 15.3084 11.083 17.1881 11.083C19.157 11.083 21.0304 10.8472 22.4577 10.4139C22.9484 10.2801 23.4199 10.089 23.8659 9.8532ZM12.3709 23.5593C9.77752 25.9233 5.75681 25.7321 3.39918 23.1387C1.04156 20.5454 1.22634 16.5246 3.81973 14.167C4.99217 13.1029 6.51507 12.5103 8.09532 12.5103C8.73251 12.5103 9.36971 12.6059 9.98142 12.7907C12.1861 13.4852 13.8492 15.314 14.3271 17.576C14.4099 17.9966 14.4545 18.4299 14.4545 18.8568C14.4545 20.6537 13.6963 22.3614 12.3709 23.5593ZM13.9894 23.6995C14.5055 23.0687 14.9197 22.3614 15.2128 21.6031C15.7544 21.6477 16.3279 21.6796 16.9141 21.6859V21.8006L16.946 23.9607C15.9583 23.948 14.9707 23.8588 13.9894 23.6995ZM15.6843 18.1049C16.0603 18.1304 16.449 18.1431 16.844 18.1495C16.844 18.1622 16.8504 18.1814 16.8504 18.1941L16.8886 20.4052C16.4362 20.3988 15.9966 20.3797 15.5696 20.3478C15.6652 19.8572 15.7162 19.3538 15.7162 18.8568C15.7226 18.6083 15.7098 18.3598 15.6843 18.1049ZM17.2518 16.8815C17.2327 16.8815 17.2136 16.8815 17.1945 16.8815C16.5828 16.8815 15.9902 16.856 15.4422 16.8178C15.2001 15.9639 14.8177 15.161 14.3016 14.4474C15.2574 14.5685 16.2196 14.6322 17.1881 14.6322C19.157 14.6322 21.0304 14.3964 22.4641 13.9631C22.9547 13.8102 23.4199 13.6254 23.8659 13.3896V15.0782C21.126 15.1547 18.2968 15.7282 17.2518 16.8815ZM18.1057 17.8628C18.1694 17.6843 18.6345 17.2702 19.9408 16.9006C21.1833 16.5501 22.8018 16.359 24.5031 16.359H24.586C26.4083 16.359 28.1925 16.5693 29.4924 16.9643C30.8369 17.3721 31.1555 17.7799 31.1746 17.8882V17.8946C31.1682 17.9902 30.8496 18.4299 29.435 18.8504C28.1288 19.2391 26.4083 19.4494 24.586 19.4494C22.8655 19.4494 21.2216 19.2518 19.9599 18.9014C18.7429 18.5573 18.2522 18.1686 18.1312 17.9711C18.1248 17.9329 18.1184 17.8946 18.1057 17.8628ZM31.1937 24.9548C31.1937 25.044 30.9069 25.4836 29.5561 25.9042C28.2626 26.3056 26.5422 26.5286 24.707 26.5286C22.8655 26.5286 21.1451 26.312 19.8707 25.9233C18.5198 25.5091 18.2459 25.0822 18.2459 24.9866C18.2459 24.9802 18.2459 24.9802 18.2459 24.9739L18.214 23.1324C19.7305 23.9034 22.2602 24.2538 24.5796 24.2538C26.5485 24.2538 28.4091 24.0181 29.8365 23.5848C30.308 23.4446 30.7604 23.2534 31.1937 23.024V24.9548ZM31.1363 21.4247C31.1363 21.5139 30.8432 21.9472 29.4669 22.3677C28.1606 22.7628 26.4275 22.9794 24.5796 22.9794C21.0814 22.9794 18.711 22.1957 18.1885 21.5776L18.1758 21.0296L18.1503 19.5704C18.6154 19.8062 19.0997 19.991 19.6031 20.1248C20.9731 20.5071 22.7381 20.7238 24.5732 20.7238C26.5103 20.7238 28.3582 20.4944 29.7791 20.0738C30.2698 19.9336 30.7413 19.7489 31.1873 19.5131V21.1507H31.1937C31.1937 21.2335 31.1363 21.3291 31.1363 21.4247Z" fill="white"/>
<path d="M11.2749 22.2658C11.1475 21.9344 10.7843 21.7751 10.4529 21.8962C10.4529 21.8898 10.4529 21.8898 10.4529 21.8898C9.24862 22.3486 7.89139 22.0555 6.98657 21.1443C6.80179 20.9786 6.64886 20.7811 6.53417 20.5645H9.80935C10.1598 20.5645 10.4466 20.2777 10.4466 19.9273C10.4466 19.5768 10.1598 19.2901 9.80935 19.2901H6.06901C6.03078 19.0607 6.02441 18.8249 6.0499 18.5891H10.1407C10.4912 18.5891 10.7779 18.3024 10.7779 17.952C10.7779 17.6015 10.4912 17.3148 10.1407 17.3148H6.42584C6.57877 17.0408 6.76356 16.7923 6.9802 16.5629C7.89139 15.658 9.24862 15.3649 10.4466 15.8301C10.7779 15.9575 11.1411 15.7919 11.2685 15.4669C11.396 15.1355 11.2303 14.7723 10.9053 14.6449C9.23588 14.0013 7.3434 14.4028 6.07538 15.6708C5.60386 16.1359 5.24703 16.6967 5.02401 17.3211H4.11919C3.76873 17.3211 3.48199 17.6079 3.48199 17.9583C3.48199 18.3088 3.76873 18.5955 4.11919 18.5955H4.75639C4.74364 18.8313 4.74364 19.0607 4.76913 19.2964H4.11919C3.76873 19.2964 3.48199 19.5832 3.48199 19.9336C3.48199 20.2841 3.76873 20.5708 4.11919 20.5708H5.0941C5.31075 21.1252 5.64846 21.6349 6.07538 22.0555C7.33703 23.3235 9.22951 23.7313 10.9053 23.0877C11.2367 22.9603 11.396 22.5971 11.2749 22.2658Z" fill="white"/>
</g>
<defs>
<clipPath id="clip0">
<rect width="32" height="32" fill="white" transform="translate(0.468079 0.617035)"/>
</clipPath>
</defs>
</svg>
