<svg width="16" height="16" viewBox="0 0 16 16" fill="none" xmlns="http://www.w3.org/2000/svg">
<path d="M8.00002 1.98802C9.95802 1.98802 10.19 1.99535 10.9634 2.03069C11.4283 2.0361 11.8888 2.12157 12.3247 2.28335C12.6433 2.40076 12.9316 2.58826 13.168 2.83202C13.4118 3.06848 13.5993 3.35669 13.7167 3.67535C13.8785 4.11125 13.9639 4.57177 13.9694 5.03669C14.0047 5.81002 14.012 6.04202 14.012 8.00002C14.012 9.95802 14.0047 10.19 13.9694 10.9634C13.9639 11.4283 13.8785 11.8888 13.7167 12.3247C13.5946 12.641 13.4077 12.9283 13.168 13.168C12.9283 13.4077 12.641 13.5946 12.3247 13.7167C11.8888 13.8785 11.4283 13.9639 10.9634 13.9694C10.19 14.0047 9.95802 14.012 8.00002 14.012C6.04202 14.012 5.81002 14.0047 5.03669 13.9694C4.57177 13.9639 4.11125 13.8785 3.67535 13.7167C3.35669 13.5993 3.06848 13.4118 2.83202 13.168C2.58826 12.9316 2.40076 12.6433 2.28335 12.3247C2.12157 11.8888 2.0361 11.4283 2.03069 10.9634C1.99535 10.19 1.98802 9.95802 1.98802 8.00002C1.98802 6.04202 1.99535 5.81002 2.03069 5.03669C2.0361 4.57177 2.12157 4.11125 2.28335 3.67535C2.40076 3.35669 2.58826 3.06848 2.83202 2.83202C3.06848 2.58826 3.35669 2.40076 3.67535 2.28335C4.11125 2.12157 4.57177 2.0361 5.03669 2.03069C5.81002 1.99535 6.04202 1.98802 8.00002 1.98802ZM8.00002 0.666687C6.00869 0.666687 5.75869 0.675354 4.97669 0.710687C4.36841 0.723258 3.76662 0.838432 3.19669 1.05135C2.70905 1.24013 2.26629 1.52881 1.89683 1.89885C1.52737 2.26888 1.23938 2.71209 1.05135 3.20002C0.838432 3.76995 0.723258 4.37174 0.710687 4.98002C0.675354 5.75869 0.666687 6.00869 0.666687 8.00002C0.666687 9.99135 0.675354 10.2414 0.710687 11.0234C0.723258 11.6316 0.838432 12.2334 1.05135 12.8034C1.24013 13.291 1.52881 13.7338 1.89885 14.1032C2.26888 14.4727 2.71209 14.7607 3.20002 14.9487C3.76995 15.1616 4.37174 15.2768 4.98002 15.2894C5.75869 15.3247 6.00869 15.3334 8.00002 15.3334C9.99135 15.3334 10.2414 15.3247 11.0234 15.2894C11.6316 15.2768 12.2334 15.1616 12.8034 14.9487C13.291 14.7599 13.7338 14.4712 14.1032 14.1012C14.4727 13.7312 14.7607 13.2879 14.9487 12.8C15.1616 12.2301 15.2768 11.6283 15.2894 11.02C15.3247 10.2414 15.3334 9.99135 15.3334 8.00002C15.3334 6.00869 15.3247 5.75869 15.2894 4.97669C15.2768 4.36841 15.1616 3.76662 14.9487 3.19669C14.7599 2.70905 14.4712 2.26629 14.1012 1.89683C13.7312 1.52737 13.2879 1.23938 12.8 1.05135C12.2301 0.838432 11.6283 0.723258 11.02 0.710687C10.2414 0.675354 9.99135 0.666687 8.00002 0.666687Z" fill="#22539D"/>
<path d="M8.00001 4.23401C7.25517 4.23401 6.52705 4.45488 5.90773 4.86869C5.28842 5.28251 4.80572 5.87068 4.52068 6.55882C4.23564 7.24697 4.16106 8.00419 4.30637 8.73472C4.45169 9.46525 4.81036 10.1363 5.33705 10.663C5.86373 11.1897 6.53477 11.5483 7.2653 11.6936C7.99583 11.839 8.75305 11.7644 9.4412 11.4793C10.1293 11.1943 10.7175 10.7116 11.1313 10.0923C11.5451 9.47297 11.766 8.74485 11.766 8.00001C11.766 7.0012 11.3692 6.04331 10.663 5.33704C9.95671 4.63078 8.99882 4.23401 8.00001 4.23401ZM8.00001 10.4447C7.5165 10.4447 7.04385 10.3013 6.64183 10.0327C6.2398 9.76405 5.92646 9.38225 5.74143 8.93554C5.5564 8.48884 5.50799 7.9973 5.60232 7.52308C5.69665 7.04886 5.92948 6.61326 6.27137 6.27137C6.61326 5.92948 7.04886 5.69664 7.52308 5.60232C7.9973 5.50799 8.48884 5.5564 8.93554 5.74143C9.38225 5.92646 9.76405 6.2398 10.0327 6.64182C10.3013 7.04385 10.4447 7.5165 10.4447 8.00001C10.4447 8.64837 10.1871 9.27018 9.72865 9.72865C9.27019 10.1871 8.64838 10.4447 8.00001 10.4447Z" fill="#22539D"/>
<path d="M11.9147 4.96538C12.4007 4.96538 12.7947 4.57139 12.7947 4.08538C12.7947 3.59937 12.4007 3.20538 11.9147 3.20538C11.4287 3.20538 11.0347 3.59937 11.0347 4.08538C11.0347 4.57139 11.4287 4.96538 11.9147 4.96538Z" fill="#22539D"/>
</svg>
