<svg width="33" height="33" viewBox="0 0 33 33" fill="none" xmlns="http://www.w3.org/2000/svg">
<g clip-path="url(#clip0)">
<path d="M30.027 18.987H29.3171V18.2067C29.3171 17.6343 29.1373 17.1036 28.8322 16.6672C29.3922 15.3256 29.6129 14.0603 29.5436 12.6106C29.4473 10.5978 28.6826 8.70458 27.3905 7.27977C26.0638 5.81671 24.3261 5.01096 22.4978 5.01096C19.7076 5.01096 17.4233 6.73958 16.4781 7.57958C15.5601 6.73158 13.3396 5.01096 10.4383 5.01096C8.61008 5.01096 6.87245 5.81671 5.54564 7.27977C4.25345 8.70464 3.48883 10.5978 3.39252 12.6107C3.32333 14.0605 3.54389 15.3258 4.10364 16.6676C3.7987 17.104 3.61908 17.6345 3.61908 18.2067V18.987H2.90914C1.56314 18.987 0.468079 20.0856 0.468079 21.436C0.468079 22.7863 1.56314 23.8849 2.90914 23.8849H3.61908V24.6652C3.61908 26.1475 4.82095 27.3533 6.29833 27.3533C6.9482 27.3533 7.54464 27.1198 8.00902 26.7323C8.44877 27.6151 9.35808 28.2231 10.4068 28.2231C11.8842 28.2231 13.0861 27.0172 13.0861 25.535V25.3876C14.8159 26.621 16.115 27.4973 16.1301 27.5075C16.2357 27.5786 16.3575 27.6141 16.4793 27.6141C16.6011 27.6141 16.723 27.5786 16.8285 27.5075C16.8435 27.4974 18.1315 26.629 19.8499 25.4033V25.535C19.8499 27.0173 21.0518 28.2231 22.5291 28.2231C23.5778 28.2231 24.4872 27.6151 24.927 26.7323C25.3914 27.1199 25.9878 27.3534 26.6376 27.3534C28.115 27.3534 29.3169 26.1475 29.3169 24.6653V23.885H30.0268C31.3728 23.885 32.4679 22.7864 32.4679 21.436C32.4681 20.0856 31.373 18.987 30.027 18.987ZM4.64114 12.6704C4.8102 9.13627 7.41077 6.26102 10.4383 6.26102C13.6346 6.26102 15.9782 8.84133 16.0008 8.86664C16.117 8.99764 16.2833 9.07352 16.4585 9.07633C16.6346 9.07989 16.8022 9.00796 16.9226 8.88077C16.9475 8.85458 19.4383 6.26102 22.4978 6.26102C25.5253 6.26102 28.1259 9.13627 28.295 12.6704C28.3483 13.7853 28.2029 14.7758 27.8293 15.8001C27.4701 15.6203 27.0657 15.5186 26.6378 15.5186C25.988 15.5186 25.3915 15.7521 24.9271 16.1397C24.4874 15.2569 23.5781 14.6489 22.5293 14.6489C21.052 14.6489 19.8501 15.8548 19.8501 17.337V18.987H13.0861V17.337C13.0861 15.8548 11.8843 14.6489 10.4069 14.6489C9.3582 14.6489 8.44883 15.2569 8.00908 16.1397C7.54464 15.7521 6.9482 15.5186 6.29839 15.5186C5.87039 15.5186 5.46583 15.6204 5.10658 15.8002C4.73314 14.7759 4.58789 13.7853 4.64114 12.6704ZM13.0861 20.237H19.8501V22.6348H13.0861V20.237ZM2.90914 22.6349C2.25239 22.6349 1.71808 22.097 1.71808 21.436C1.71808 20.7749 2.25239 20.237 2.90914 20.237H3.61908V22.6348H2.90914V22.6349ZM6.29833 26.1033C5.51027 26.1033 4.86908 25.4582 4.86908 24.6652V18.2067C4.86908 17.4137 5.51027 16.7686 6.29833 16.7686C7.08639 16.7686 7.72758 17.4137 7.72758 18.2067V24.6652C7.72758 25.4581 7.08645 26.1033 6.29833 26.1033ZM11.8361 25.5349C11.8361 26.3279 11.195 26.973 10.4069 26.973C9.61883 26.973 8.97764 26.3279 8.97764 25.5349V17.3371C8.97764 16.5441 9.61883 15.899 10.4069 15.899C11.195 15.899 11.8361 16.5441 11.8361 17.3371V25.5349ZM16.4795 26.2333C15.8916 25.8316 14.6218 24.9564 13.1355 23.8848H19.822C18.3371 24.9564 17.0673 25.8317 16.4795 26.2333ZM23.9586 25.5349C23.9586 26.3279 23.3174 26.973 22.5293 26.973C21.7413 26.973 21.1001 26.3279 21.1001 25.5349V17.3371C21.1001 16.5441 21.7413 15.899 22.5293 15.899C23.3174 15.899 23.9586 16.5441 23.9586 17.3371V25.5349ZM28.0671 24.6652C28.0671 25.4582 27.4259 26.1033 26.6378 26.1033C25.8498 26.1033 25.2086 25.4582 25.2086 24.6652V18.2067C25.2086 17.4137 25.8498 16.7686 26.6378 16.7686C27.4259 16.7686 28.0671 17.4137 28.0671 18.2067V24.6652ZM30.027 22.6349H29.3171V20.237H30.027C30.6838 20.237 31.2181 20.7748 31.2181 21.436C31.2181 22.097 30.6838 22.6349 30.027 22.6349Z" fill="white"/>
</g>
<defs>
<clipPath id="clip0">
<rect width="32" height="32" fill="white" transform="translate(0.468079 0.617035)"/>
</clipPath>
</defs>
</svg>
