<svg width="16" height="14" viewBox="0 0 16 14" fill="none" xmlns="http://www.w3.org/2000/svg">
<path d="M16 2.06666C15.4 2.33333 14.8 2.53333 14.1333 2.59999C14.8 2.19999 15.3333 1.53333 15.6 0.799992C14.9333 1.19999 14.2667 1.46666 13.5333 1.59999C12.9333 0.933325 12.0667 0.533325 11.1333 0.533325C9.33333 0.533325 7.86667 1.99999 7.86667 3.79999C7.86667 4.06666 7.86667 4.33333 7.93333 4.53333C5.13333 4.39999 2.73333 3.06666 1.13333 1.06666C0.8 1.59999 0.666667 2.13333 0.666667 2.73333C0.666667 3.86666 1.26667 4.86666 2.13333 5.46666C1.6 5.46666 1.06667 5.33333 0.666667 5.06666C0.666667 5.06666 0.666667 5.06666 0.666667 5.13333C0.666667 6.73333 1.8 8.06666 3.26667 8.33333C3 8.39999 2.73333 8.46666 2.4 8.46666C2.2 8.46666 2 8.46666 1.8 8.39999C2.2 9.73333 3.4 10.6667 4.86667 10.6667C3.73333 11.5333 2.33333 12.0667 0.8 12.0667C0.533333 12.0667 0.266667 12.0667 0 12C1.46667 12.9333 3.2 13.4667 5 13.4667C11.0667 13.4667 14.3333 8.46666 14.3333 4.13333C14.3333 3.99999 14.3333 3.86666 14.3333 3.73333C15 3.26666 15.5333 2.66666 16 2.06666Z" fill="#22539D"/>
</svg>
