<svg width="34" height="33" viewBox="0 0 34 33" fill="none" xmlns="http://www.w3.org/2000/svg">
<g clip-path="url(#clip0)">
<path d="M30.4826 8.8751H25.2859C25.2859 7.16723 23.8875 5.77832 22.1679 5.77832C20.4484 5.77832 19.0499 7.16723 19.0499 8.8751H12.2844C12.9397 8.0111 13.3336 6.94116 13.3336 5.77832C13.3336 2.93239 11.0024 0.617035 8.13699 0.617035C5.27156 0.617035 2.94035 2.93239 2.94035 5.77832C2.94035 6.94116 3.33426 8.0111 3.98955 8.8751H3.46002C2.0273 8.8751 0.861694 10.0328 0.861694 11.4557V26.9396C0.861694 28.3626 2.0273 29.5203 3.46002 29.5203H9.17632V31.5848H7.09766V32.617H9.17632H24.7662H26.8449V31.5848H24.7662V29.5203H30.4826C31.9153 29.5203 33.0809 28.3626 33.0809 26.9396V11.4557C33.0809 10.0328 31.9153 8.8751 30.4826 8.8751ZM22.1679 6.81058C23.3143 6.81058 24.2466 7.73652 24.2466 8.8751C24.2466 10.0137 23.3143 10.9396 22.1679 10.9396C21.0215 10.9396 20.0893 10.0137 20.0893 8.8751C20.0893 7.73652 21.0215 6.81058 22.1679 6.81058ZM19.2318 9.90736C19.3742 10.3053 19.5956 10.6655 19.8783 10.9701L15.5432 15.7061C14.9025 15.305 14.1459 15.0686 13.3336 15.0686C12.8768 15.0686 12.4388 15.145 12.0272 15.2808L10.2697 10.4797C10.621 10.3218 10.9505 10.1257 11.255 9.89755V9.90736H19.2318ZM16.4516 19.1977C16.4516 20.9055 15.0532 22.2945 13.3336 22.2945C11.6141 22.2945 10.2156 20.9055 10.2156 19.1977C10.2156 17.4898 11.6141 16.1009 13.3336 16.1009C15.0532 16.1009 16.4516 17.4898 16.4516 19.1977ZM3.97968 5.77832C3.97968 3.50168 5.84475 1.64929 8.13699 1.64929C10.4292 1.64929 12.2943 3.50168 12.2943 5.77832C12.2943 8.05497 10.4292 9.90736 8.13699 9.90736C5.84475 9.90736 3.97968 8.05497 3.97968 5.77832ZM23.7269 31.5848H10.2156V29.5203H23.7269V31.5848ZM32.0415 26.9396C32.0415 27.7933 31.3421 28.488 30.4826 28.488H24.7662H9.17632H3.46002C2.60049 28.488 1.90102 27.7933 1.90102 26.9396V26.4235H32.0415V26.9396ZM32.0415 25.3912H1.90102V11.4557C1.90102 10.6021 2.60049 9.90736 3.46002 9.90736H5.01901V9.89755C5.88893 10.5484 6.96619 10.9396 8.13699 10.9396C8.53142 10.9396 8.91441 10.8916 9.28389 10.8085L11.0856 15.7293C9.93867 16.4653 9.17632 17.7437 9.17632 19.1977C9.17632 21.4743 11.0414 23.3267 13.3336 23.3267C15.6259 23.3267 17.4909 21.4743 17.4909 19.1977C17.4909 18.0994 17.0544 17.1027 16.3477 16.3621L20.7009 11.6059C21.1385 11.8392 21.6379 11.9719 22.1679 11.9719C22.8612 11.9719 23.4998 11.7432 24.0179 11.3623L27.1214 14.0596C26.9504 14.359 26.8449 14.7001 26.8449 15.0686C26.8449 16.2072 27.7772 17.1332 28.9236 17.1332C30.0699 17.1332 31.0022 16.2072 31.0022 15.0686C31.0022 13.9301 30.0699 13.0041 28.9236 13.0041C28.526 13.0041 28.1581 13.1213 27.8421 13.3138L24.7418 10.6196C24.8925 10.4008 25.0131 10.1613 25.104 9.90736H30.4826C31.3421 9.90736 32.0415 10.6021 32.0415 11.4557V25.3912ZM27.8842 15.0686C27.8842 14.4994 28.3504 14.0364 28.9236 14.0364C29.4967 14.0364 29.9629 14.4994 29.9629 15.0686C29.9629 15.6379 29.4967 16.1009 28.9236 16.1009C28.3504 16.1009 27.8842 15.6379 27.8842 15.0686Z" fill="white"/>
<path d="M31.0022 23.3267H29.9629V24.359H31.0022V23.3267Z" fill="white"/>
<path d="M28.9235 23.3267H24.7662V24.359H28.9235V23.3267Z" fill="white"/>
<path d="M31.0022 21.2622H24.7662V22.2945H31.0022V21.2622Z" fill="white"/>
</g>
<defs>
<clipPath id="clip0">
<rect width="32.2192" height="32" fill="white" transform="translate(0.861694 0.617035)"/>
</clipPath>
</defs>
</svg>
