<svg width="16" height="12" viewBox="0 0 16 12" fill="none" xmlns="http://www.w3.org/2000/svg">
<path d="M15.8667 2.80002C15.8667 2.80002 15.7333 1.66669 15.2 1.20002C14.6 0.533358 13.9333 0.533358 13.6 0.533358C11.3333 0.400024 8 0.400024 8 0.400024C8 0.400024 4.66667 0.400024 2.4 0.533358C2.06667 0.600024 1.4 0.600025 0.8 1.20002C0.333333 1.66669 0.133333 2.80002 0.133333 2.80002C0.133333 2.80002 0 4.06669 0 5.40003V6.60002C0 7.86669 0.133333 9.20002 0.133333 9.20002C0.133333 9.20002 0.266667 10.3334 0.8 10.8C1.4 11.4667 2.2 11.4 2.53333 11.4667C3.8 11.6 8 11.6 8 11.6C8 11.6 11.3333 11.6 13.6 11.4C13.9333 11.3334 14.6 11.3334 15.2 10.7334C15.6667 10.2667 15.8667 9.13336 15.8667 9.13336C15.8667 9.13336 16 7.86669 16 6.53336V5.33336C16 4.06669 15.8667 2.80002 15.8667 2.80002ZM6.33333 8.06669V3.60002L10.6667 5.86669L6.33333 8.06669Z" fill="#22539D"/>
</svg>
