<svg width="24" height="24" viewBox="0 0 24 24" fill="none" xmlns="http://www.w3.org/2000/svg">
<path d="M14 19H17" stroke="#2270E8" stroke-width="1.5" stroke-linecap="round" stroke-linejoin="round"/>
<path d="M8.796 13.907L2.971 17.417C2.369 17.779 2 18.43 2 19.132V23H22V19.132C22 18.429 21.631 17.778 21.029 17.417L15.204 13.907" stroke="#2270E8" stroke-width="1.5" stroke-linecap="round" stroke-linejoin="round"/>
<path d="M6.00293 6.796C6.63293 6.982 7.29493 7.106 7.98493 7.106C9.94493 7.106 11.7139 6.298 12.9849 5C14.2559 6.298 16.0389 7.106 17.9989 7.106" stroke="#2270E8" stroke-width="1.5" stroke-linecap="round" stroke-linejoin="round"/>
<path d="M6 7C6 3.686 8.686 1 12 1C15.314 1 18 3.686 18 7C18 12 15.314 15 12 15C8.686 15 6 12 6 7Z" stroke="#2270E8" stroke-width="1.5" stroke-linecap="round" stroke-linejoin="round"/>
</svg>
