<svg width="16" height="15" viewBox="0 0 16 15" fill="none" xmlns="http://www.w3.org/2000/svg">
<path d="M3.712 14.88C3.008 14.88 2.368 14.6347 1.792 14.144C1.23733 13.632 0.8 12.9707 0.48 12.16C0.16 11.3493 0 10.4853 0 9.568C0 8.07467 0.266667 6.67733 0.8 5.376C1.33333 4.05333 1.99467 2.93333 2.784 2.016C3.57333 1.07733 4.33067 0.405333 5.056 0H5.088L6.336 1.12V1.632C5.80267 2.12267 5.30133 2.82667 4.832 3.744C4.384 4.66133 4.16 5.792 4.16 7.136C4.16 7.79733 4.256 8.34133 4.448 8.768C4.64 9.19467 4.91733 9.64267 5.28 10.112C5.6 10.5387 5.83467 10.9227 5.984 11.264C6.13333 11.584 6.208 11.9893 6.208 12.48C6.208 13.1627 5.96267 13.7387 5.472 14.208C5.00267 14.656 4.416 14.88 3.712 14.88ZM12.928 14.88C12.224 14.88 11.584 14.6347 11.008 14.144C10.4533 13.632 10.016 12.9707 9.696 12.16C9.376 11.3493 9.216 10.4853 9.216 9.568C9.216 8.07467 9.48267 6.67733 10.016 5.376C10.5493 4.05333 11.2107 2.93333 12 2.016C12.7893 1.07733 13.5467 0.405333 14.272 0H14.304L15.552 1.12V1.632C15.0187 2.12267 14.5173 2.83733 14.048 3.776C13.5787 4.69333 13.344 5.81333 13.344 7.136C13.344 7.79733 13.44 8.34133 13.632 8.768C13.824 9.19467 14.1013 9.64267 14.464 10.112C14.784 10.5387 15.0187 10.9227 15.168 11.264C15.3173 11.584 15.392 11.9893 15.392 12.48C15.392 13.1627 15.1573 13.7387 14.688 14.208C14.2187 14.656 13.632 14.88 12.928 14.88Z" fill="#B3B3B3"/>
</svg>
