<svg width="1920" height="247" viewBox="0 0 1920 247" fill="none" xmlns="http://www.w3.org/2000/svg">
<g opacity="0.5" clip-path="url(#clip0)">
<path d="M651.494 -212.93C634.803 -175.607 618.113 -138.283 601.177 -101.205C596.268 -90.4007 591.359 -78.8598 591.604 -67.0734C592.095 -45.9561 608.295 -29.0131 618.113 -10.3512C625.231 2.90848 629.158 17.6415 632.103 32.129C641.43 78.0469 641.921 125.929 633.085 171.847C629.158 192.473 623.267 213.1 624.249 233.971C625.231 257.053 634.067 279.153 635.049 301.989C635.539 315.985 633.33 330.473 638.485 343.487C648.548 369.27 681.929 377.127 698.62 399.227C708.683 412.732 712.119 430.657 724.146 442.444C737.646 455.703 758.018 457.913 776.918 459.141C822.081 462.088 867.243 463.07 912.406 462.333C938.423 461.842 965.177 460.86 988.986 450.301C1004.69 443.426 1018.69 432.622 1035.13 427.956C1058.45 421.326 1082.99 427.711 1106.31 434.095C1158.84 448.337 1217.01 466.999 1242.04 515.372C1262.42 554.906 1257.26 608.927 1292.12 636.429C1308.07 648.952 1331.14 654.354 1340.96 672.279C1351.27 691.432 1341.7 714.759 1341.2 736.368C1340.71 760.923 1352.25 784.004 1355.44 808.068C1361.82 855.951 1336.05 902.605 1335.56 950.979C1335.07 994.932 1357.4 1038.39 1393.24 1063.93" stroke="#22539D" stroke-width="3" stroke-miterlimit="10"/>
<path d="M1894.45 -31.4686C1874.57 -15.7533 1846.09 -20.9099 1821.55 -26.312C1683.11 -55.7781 1535.6 -63.8812 1403.06 -14.0345C1355.44 3.89069 1306.84 33.3568 1291.62 81.7302C1285.98 99.9009 1285.24 119.054 1284.75 138.207C1283.52 180.196 1282.54 222.922 1294.81 262.946C1302.67 288.975 1315.92 313.039 1331.14 335.384C1341.7 350.853 1353.97 366.078 1370.41 374.672C1385.39 382.529 1402.81 384.494 1419.75 385.967C1441.59 387.686 1463.44 388.914 1485.53 389.405C1497.06 389.65 1509.09 389.65 1519.65 384.985C1532.16 379.583 1541.25 368.288 1549.84 357.729C1581.74 317.459 1613.9 277.188 1645.81 237.164C1663.48 215.064 1681.64 192.473 1705.7 177.74C1729.75 163.007 1761.66 157.605 1786.45 171.602C1796.76 177.249 1805.1 186.089 1815.17 191.982C1849.77 212.363 1893.71 197.139 1930.53 180.933" stroke="#22539D" stroke-width="3" stroke-miterlimit="10"/>
<path d="M18.481 457.177C23.6354 465.526 35.1715 466.508 44.744 466.262C148.078 463.07 245.767 419.362 347.628 402.665C389.354 395.789 431.571 393.579 472.807 384.494C507.415 376.882 544.232 361.167 558.714 328.754C570.741 301.743 564.114 270.313 566.568 240.847C568.777 213.591 579.086 187.562 584.731 160.797C594.059 116.598 590.622 69.9438 575.159 27.4636C566.814 5.11847 555.278 -16.49 552.087 -40.3084C544.723 -102.678 597.74 -157.436 602.895 -220.051" stroke="#22539D" stroke-miterlimit="10"/>
<path d="M17.0083 413.223C64.3799 428.938 115.433 412.241 163.05 397.753C243.312 373.69 325.537 356.01 408.499 345.451C433.78 342.259 460.534 339.067 481.397 324.334C505.942 306.9 517.478 275.961 521.651 246.003C525.578 216.046 523.369 185.598 527.051 155.641C529.505 135.015 534.905 114.143 530.242 94.0077C526.069 74.6092 513.551 58.4028 504.47 40.9688C483.852 0.207397 483.607 -49.8849 503.488 -90.8918C511.097 -106.607 521.406 -120.603 529.015 -136.073C543.496 -164.802 549.141 -196.97 554.787 -228.646" stroke="#22539D" stroke-miterlimit="10"/>
<path d="M25.3535 353.555C72.9706 371.48 126.233 361.903 174.586 346.434C233.494 327.526 292.156 310.829 354.01 299.779C402.608 291.185 441.635 269.085 454.153 218.256C462.989 182.651 462.743 143.854 457.834 107.513C452.925 72.6448 431.571 41.4599 430.344 5.85507C429.117 -30.7319 439.671 -65.8457 454.644 -98.7494C471.825 -137.055 494.161 -177.08 488.025 -220.788" stroke="#22539D" stroke-miterlimit="10"/>
<path d="M109.542 35.3211C72.9705 52.5097 41.0622 79.7658 17.99 112.915C-5.08223 146.064 -19.5637 185.107 -21.7727 225.377C-22.7545 244.039 -20.791 263.929 -9.9912 279.153C9.1538 305.918 47.6893 308.619 80.5794 307.391C122.551 305.918 165.996 302.726 208.458 295.85C250.921 288.975 292.893 278.171 331.919 261.228C360.882 248.704 392.054 229.797 405.308 200.086C420.526 165.708 411.199 123.719 394.508 91.3067C371.927 47.5987 320.137 31.6379 275.466 20.5881C220.976 7.08285 161.087 11.2572 109.542 35.3211Z" stroke="#22539D" stroke-miterlimit="10"/>
<path d="M355.237 106.285C338.546 74.3637 301.974 61.104 268.348 52.7552C265.893 52.0186 263.193 51.5275 260.739 50.7908C221.222 41.4599 178.268 43.1788 139.978 57.9118C136.296 59.3851 132.615 60.8584 128.933 62.5773C99.7246 76.0825 74.1979 97.1998 55.7892 122.983C53.0893 126.666 50.6348 130.349 48.1803 134.278C33.6989 157.851 24.8627 184.37 23.6355 211.872C23.6355 214.573 23.39 217.028 23.6355 219.73C23.8809 232.007 26.5808 244.285 33.9443 254.107C49.1621 274.733 79.1069 276.943 105.124 276.206C118.624 275.715 132.369 275.224 146.36 274.242C165.996 272.768 185.877 270.558 205.513 267.612C238.894 262.21 271.784 253.615 302.465 240.847C326.274 230.779 351.801 215.801 362.846 192.228C375.364 164.972 368.737 132.068 355.237 106.285Z" stroke="#22539D" stroke-miterlimit="10"/>
<path d="M315.474 120.773C302.956 97.691 276.202 87.869 250.921 81.7302C248.957 81.2391 247.239 80.748 245.276 80.5024C216.067 73.8726 184.404 75.5914 155.932 86.1501C153.232 87.1323 150.287 88.3601 147.587 89.5878C125.742 99.1643 106.597 114.634 92.6066 133.05C90.643 135.751 88.6794 138.452 86.9612 141.153C75.6706 158.342 68.798 177.74 68.3071 197.876C68.3071 199.84 68.3071 201.804 68.3071 203.769C68.798 212.854 71.2525 221.694 76.8978 228.815C87.943 243.057 109.297 245.021 128.688 244.776C138.505 244.53 148.569 244.285 158.632 243.548C172.868 242.566 187.35 241.092 201.586 238.882C225.885 234.954 249.694 228.815 272.03 219.73C290.929 212.117 310.811 200.822 319.647 183.634C329.71 163.99 325.783 140.171 315.474 120.773Z" stroke="#22539D" stroke-miterlimit="10"/>
<path d="M275.711 135.506C267.612 121.018 250.676 114.634 233.74 111.196C232.512 110.951 231.285 110.705 230.058 110.46C211.404 106.776 190.786 108.25 172.377 114.88C170.659 115.616 168.696 116.107 166.978 116.844C152.496 122.737 139.733 132.068 130.16 143.118C128.688 144.837 127.46 146.31 126.233 148.029C118.133 159.079 113.224 171.356 113.47 184.125C113.47 185.352 113.715 186.58 113.715 187.808C114.452 193.701 116.661 198.858 120.588 203.278C127.706 211.381 140.469 213.1 152.987 213.1C159.123 213.1 165.259 212.854 171.641 212.609C180.477 212.117 189.313 211.135 198.395 209.908C213.367 207.698 228.34 203.769 242.33 198.612C256.321 193.456 270.312 186.089 276.939 175.039C284.302 163.007 282.829 148.274 275.711 135.506Z" stroke="#22539D" stroke-miterlimit="10"/>
<path d="M159.123 172.338C159.859 174.794 162.068 176.758 164.032 178.231C167.959 180.933 175.568 182.16 184.159 181.915C192.995 181.669 203.058 180.196 212.14 177.74C221.221 175.285 229.321 171.356 233.985 166.691C238.648 162.025 240.121 156.623 235.948 150.239C232.021 144.591 224.903 141.399 216.312 140.662C207.722 139.68 197.904 140.908 188.577 143.609C179.495 146.31 170.904 150.239 165.259 155.395C159.859 160.061 156.914 165.954 159.123 172.338Z" stroke="#22539D" stroke-miterlimit="10"/>
<path d="M432.307 -203.845C441.635 -192.059 442.862 -175.852 439.671 -161.365C436.48 -146.877 429.117 -133.618 422.244 -120.358C411.935 -99.9772 402.608 -78.8598 394.263 -57.4969C389.599 -45.465 384.936 -32.6964 374.872 -24.8387C364.564 -16.9811 350.818 -15.7534 337.81 -15.7534C285.284 -15.2623 233.003 -27.0487 180.477 -24.1021C114.697 -20.6644 50.3891 6.59171 2.03564 51.0363" stroke="#22539D" stroke-miterlimit="10"/>
<path d="M730.283 -208.019C694.938 -171.923 656.893 -130.18 658.366 -79.5965C659.102 -56.5147 668.184 -34.4152 674.811 -12.3156C687.575 30.6557 690.52 76.3281 683.647 120.527C679.229 149.011 670.884 176.758 668.43 205.488C665.975 234.217 670.393 264.911 688.556 287.256C703.529 305.672 727.337 317.213 736.173 339.313C741.819 353.555 740.837 371.234 751.882 381.793C757.527 387.195 765.136 389.896 772.745 392.106C822.081 407.33 876.816 419.853 923.942 398.981C955.605 384.985 981.131 356.501 1015.25 350.117C1042.98 344.96 1071.21 355.519 1099.44 356.501C1151.72 358.466 1203.51 324.089 1222.16 275.224C1232.96 246.986 1233.21 216.046 1233.21 185.844C1233.21 114.143 1234.68 35.8123 1280.33 -19.4366C1297.51 -40.3084 1320.1 -56.2692 1337.52 -76.6498C1373.85 -119.376 1385.39 -181.991 1366.73 -234.784" stroke="#22539D" stroke-miterlimit="10"/>
<path d="M1039.3 178.723C1040.28 204.505 1043.72 230.779 1056.48 253.124C1069.25 275.469 1093.06 292.904 1118.83 291.921C1144.85 290.939 1167.18 271.295 1178.72 248.213C1190.25 224.886 1192.71 198.367 1193.69 172.338C1195.9 121.755 1204.49 46.862 1153.93 15.6771C1110.48 -11.3335 1065.57 22.5525 1051.58 65.2783C1039.79 100.883 1037.83 141.644 1039.3 178.723Z" stroke="#22539D" stroke-miterlimit="10"/>
<path d="M1094.28 206.47C1096.98 212.609 1100.42 218.747 1105.57 222.922C1110.73 227.096 1118.34 229.306 1124.47 226.605C1129.14 224.641 1132.08 220.466 1134.78 216.292C1151.23 191 1188.29 79.7658 1133.8 76.8192C1071.95 73.3815 1078.57 170.865 1094.28 206.47Z" stroke="#22539D" stroke-miterlimit="10"/>
<path d="M782.317 -195.005C755.809 -168.486 733.228 -135.336 730.282 -98.0127C728.564 -77.141 733.228 -56.2692 736.664 -35.6429C747.955 33.6023 744.764 105.303 728.073 173.566C733.473 193.456 738.873 213.836 750.164 231.27C758.754 244.776 770.536 256.562 776.427 271.295C782.808 287.993 781.336 307.882 791.399 322.861C800.481 336.121 816.926 342.259 832.634 345.451C865.525 352.081 900.624 349.38 930.814 334.647C961.004 319.914 985.304 292.658 993.894 260.245C1003.47 224.395 993.649 186.826 991.44 149.748C988.249 95.9721 1001.99 41.4599 1029.98 -4.45802C1054.03 -43.7461 1089.13 -78.8598 1095.02 -124.532C1098.95 -155.226 1088.64 -186.656 1071.21 -212.194" stroke="#22539D" stroke-miterlimit="10"/>
<path d="M811.035 -193.041C791.154 -170.696 773.972 -143.194 771.518 -112.746C770.045 -95.8028 773.236 -78.6143 775.69 -61.6713C783.299 -5.19466 779.863 53.2464 766.609 108.986C768.818 118.563 771.027 128.139 774.218 137.225C776.427 143.854 779.127 150.239 782.563 156.378C788.945 167.673 798.026 177.495 802.69 189.527C807.844 203.278 807.353 218.993 816.19 230.779C823.798 241.092 836.807 245.758 849.571 247.968C875.834 252.633 903.815 249.687 926.887 236.918C950.695 223.904 969.104 200.822 975.977 174.057C983.34 145.328 976.468 115.125 975.24 85.4135C973.522 42.4422 984.567 -1.26585 1005.92 -38.5895C1024.33 -70.7566 1050.84 -100.223 1055.01 -137.301C1057.71 -162.101 1049.61 -187.639 1035.62 -208.51" stroke="#22539D" stroke-miterlimit="10"/>
<path d="M839.507 -191.322C826.253 -173.151 814.717 -151.543 812.508 -127.97C811.28 -114.71 813.244 -101.696 814.471 -88.4363C818.398 -44.4827 814.717 0.45299 805.144 43.6699C806.371 51.0364 807.844 58.6484 809.808 65.7694C811.28 70.926 812.998 76.0825 815.207 80.748C819.38 89.5878 825.516 97.691 829.198 107.022C833.125 117.826 833.862 129.613 841.225 138.207C847.361 145.573 857.179 148.765 866.506 149.993C886.142 152.694 906.76 149.257 923.205 138.698C940.877 127.403 953.15 108.25 958.059 87.3778C963.213 65.5238 959.286 42.9332 959.041 20.5881C958.795 -11.8245 967.14 -44.4827 981.867 -73.2121C994.876 -98.5038 1012.79 -122.077 1015.25 -150.315C1016.97 -169.468 1010.83 -188.866 1000.52 -205.318" stroke="#22539D" stroke-miterlimit="10"/>
<path d="M868.225 -189.358C861.597 -175.361 855.461 -159.646 853.743 -142.948C852.761 -133.618 853.252 -124.287 853.498 -114.956C853.743 -83.7708 849.816 -52.3404 843.68 -21.401C844.171 -15.9989 844.661 -10.8423 845.398 -5.68579C845.889 -2.00253 846.87 1.68072 847.852 5.36398C850.061 11.9938 853.252 18.1326 855.707 24.7625C858.407 32.3745 860.37 40.2321 866.016 45.6343C870.679 49.8086 877.061 51.773 883.197 52.0186C895.96 52.7552 909.46 48.8264 919.278 40.4777C930.814 30.6557 936.95 15.9227 940.141 0.452972C943.332 -14.2801 942.105 -29.5042 942.841 -44.4828C943.823 -66.3368 949.468 -88.1907 957.813 -108.08C965.422 -126.251 974.749 -143.931 975.24 -163.82C975.731 -177.326 971.559 -190.831 964.931 -202.372" stroke="#22539D" stroke-miterlimit="10"/>
<path d="M1898.13 -1.51143C1872.36 10.7661 1842.66 11.5028 1814.18 8.8017C1785.71 6.10065 1757.73 -0.0381224 1729.26 -0.529223C1720.91 -0.774774 1711.59 -0.0381112 1705.94 6.10065C1700.05 12.485 1700.3 22.5525 1702.75 30.6557C1705.21 39.0044 1709.62 46.6165 1710.85 55.2107C1712.32 64.2961 1710.11 73.3815 1709.62 82.7124C1709.13 91.7977 1711.1 102.111 1718.21 107.759C1729.5 116.598 1746.2 109.477 1760.43 110.951C1776.63 112.67 1789.15 125.438 1802.89 134.524C1833.82 154.904 1876.28 156.132 1908.44 137.716" stroke="#22539D" stroke-miterlimit="10"/>
<path d="M1893.46 32.6201C1863.03 44.8976 1828.67 42.4421 1795.78 39.7411C1783.26 38.7589 1768.04 39.0044 1762.15 50.0542C1757.49 58.1573 1760.92 68.9616 1767.55 75.5914C1774.18 82.2213 1783.5 85.1679 1792.59 87.6234C1830.63 97.9365 1871.87 99.9009 1909.17 87.1323" stroke="#22539D" stroke-miterlimit="10"/>
<path d="M1429.57 17.6415C1396.19 28.4457 1362.56 44.6521 1343.41 74.1181C1320.34 109.477 1323.78 155.641 1330.9 197.384C1335.56 224.149 1341.7 251.16 1354.46 275.224C1367.47 299.288 1388.09 320.16 1414.1 327.772C1440.12 335.629 1468.84 329.491 1492.89 316.722C1516.95 303.953 1536.83 284.8 1555.73 264.911C1579.04 240.601 1601.38 215.064 1620.28 187.071C1634.52 165.954 1647.03 143.363 1653.17 118.808C1659.31 94.2533 1658.57 67.2427 1647.28 44.4065C1606.54 -39.0806 1495.59 -4.21248 1429.57 17.6415Z" stroke="#22539D" stroke-miterlimit="10"/>
<path d="M1601.38 66.5061C1561.37 16.6593 1489.21 36.5489 1440.61 54.4741C1416.56 63.3139 1392.26 75.837 1378.27 97.4454C1362.56 121.755 1362.56 152.694 1366.73 181.669C1366.98 183.634 1367.22 185.844 1367.71 187.808C1370.9 207.698 1375.32 227.587 1385.14 245.021C1395.2 262.455 1410.91 276.943 1430.3 282.099C1449.69 287.256 1470.8 282.345 1488.47 272.523C1505.9 262.946 1520.38 248.704 1534.13 234.217C1551.06 216.292 1567.26 197.384 1581.5 177.249C1593.28 160.797 1605.31 142.136 1611.44 122.246C1617.58 102.111 1614.63 83.2035 1601.38 66.5061Z" stroke="#22539D" stroke-miterlimit="10"/>
<path d="M1554.99 88.8512C1530.94 61.8406 1482.58 77.5558 1451.66 91.3067C1436.68 97.9365 1421.96 106.776 1413.12 120.527C1403.06 135.997 1401.83 155.395 1403.79 174.303C1404.04 175.53 1404.04 177.004 1404.28 178.232C1406 191 1408.7 203.769 1415.58 214.573C1422.45 225.623 1433.49 233.726 1446.26 236.181C1458.77 238.391 1472.52 234.954 1483.56 228.324C1494.36 221.94 1503.45 212.854 1512.04 203.523C1522.59 191.982 1532.65 179.705 1542.23 167.427C1551.55 155.641 1563.34 140.662 1569.23 125.929C1575.61 110.214 1574.63 94.9899 1554.99 88.8512Z" stroke="#22539D" stroke-miterlimit="10"/>
<path d="M1440.86 166.936C1440.86 173.075 1441.84 179.705 1445.77 184.37C1453.62 193.456 1468.84 191.246 1478.66 184.125C1488.23 177.004 1494.61 165.954 1503.2 157.605C1518.17 142.872 1553.76 107.267 1508.85 110.951C1478.66 113.406 1441.35 133.787 1440.86 166.936Z" stroke="#22539D" stroke-miterlimit="10"/>
<path d="M1917.76 225.132C1892.73 242.32 1858.86 245.267 1831.37 232.744C1812.47 224.149 1796.02 208.68 1775.4 205.242C1743.5 200.085 1715.27 225.623 1693.91 249.932C1662.99 285.046 1634.03 322.37 1607.76 361.167C1594.51 380.811 1581.5 401.437 1576.34 424.764C1572.66 441.707 1573.4 459.387 1571.93 476.575C1565.3 549.995 1515.23 615.802 1450.43 650.916C1427.6 663.194 1400.6 674.735 1391.03 698.799C1378.02 731.948 1405.27 766.325 1409.44 801.684C1412.14 825.011 1404.53 848.339 1401.09 871.421C1390.54 943.367 1423.68 1019.98 1483.32 1061.48C1607.03 1147.66 1754.3 1195.55 1902.79 1221.08" stroke="#22539D" stroke-miterlimit="10"/>
</g>
<defs>
<clipPath id="clip0">
<rect width="1955" height="247" fill="white" transform="translate(-23)"/>
</clipPath>
</defs>
</svg>
