<svg width="132" height="40" viewBox="0 0 132 40" fill="none" xmlns="http://www.w3.org/2000/svg">
<path d="M62.12 12.84V16.36H58.36V27H53.92V16.36H50.2V12.84H62.12ZM71.2242 15.64C72.5176 15.64 73.5242 16.0733 74.2442 16.94C74.9776 17.8067 75.3442 18.98 75.3442 20.46V27H70.9242V21.02C70.9242 20.4867 70.7776 20.0667 70.4842 19.76C70.2042 19.44 69.8242 19.28 69.3442 19.28C68.8509 19.28 68.4642 19.44 68.1842 19.76C67.9042 20.0667 67.7642 20.4867 67.7642 21.02V27H63.3242V12.2H67.7642V17.44C68.1109 16.9067 68.5709 16.4733 69.1442 16.14C69.7309 15.8067 70.4242 15.64 71.2242 15.64ZM88.1895 21.26C88.1895 21.5667 88.1695 21.86 88.1295 22.14H80.9895C81.0562 23.1133 81.4629 23.6 82.2095 23.6C82.6895 23.6 83.0362 23.38 83.2495 22.94H87.9495C87.7895 23.74 87.4495 24.46 86.9295 25.1C86.4229 25.7267 85.7762 26.2267 84.9895 26.6C84.2162 26.96 83.3629 27.14 82.4295 27.14C81.3095 27.14 80.3095 26.9067 79.4295 26.44C78.5629 25.9733 77.8829 25.3067 77.3895 24.44C76.9095 23.56 76.6695 22.5333 76.6695 21.36C76.6695 20.1867 76.9095 19.1667 77.3895 18.3C77.8829 17.42 78.5629 16.7467 79.4295 16.28C80.3095 15.8133 81.3095 15.58 82.4295 15.58C83.5495 15.58 84.5429 15.8133 85.4095 16.28C86.2895 16.7333 86.9695 17.3867 87.4495 18.24C87.9429 19.0933 88.1895 20.1 88.1895 21.26ZM83.6895 20.2C83.6895 19.8267 83.5695 19.5467 83.3295 19.36C83.0895 19.16 82.7895 19.06 82.4295 19.06C81.6429 19.06 81.1829 19.44 81.0495 20.2H83.6895ZM92.3922 21.36C92.3922 20.1867 92.6322 19.1667 93.1122 18.3C93.6055 17.42 94.2855 16.7467 95.1522 16.28C96.0322 15.8133 97.0322 15.58 98.1522 15.58C99.6189 15.58 100.852 15.9933 101.852 16.82C102.866 17.6467 103.506 18.7933 103.772 20.26H99.0722C98.8989 19.6733 98.5589 19.38 98.0522 19.38C97.6922 19.38 97.4055 19.5467 97.1922 19.88C96.9922 20.2133 96.8922 20.7067 96.8922 21.36C96.8922 22.0133 96.9922 22.5067 97.1922 22.84C97.4055 23.1733 97.6922 23.34 98.0522 23.34C98.5589 23.34 98.8989 23.0467 99.0722 22.46H103.772C103.506 23.9267 102.866 25.0733 101.852 25.9C100.852 26.7267 99.6189 27.14 98.1522 27.14C97.0322 27.14 96.0322 26.9067 95.1522 26.44C94.2855 25.9733 93.6055 25.3067 93.1122 24.44C92.6322 23.56 92.3922 22.5333 92.3922 21.36ZM117.12 15.72V27H112.68V25.28C112.333 25.8133 111.866 26.2467 111.28 26.58C110.706 26.9133 110.02 27.08 109.22 27.08C107.926 27.08 106.913 26.6467 106.18 25.78C105.46 24.9133 105.1 23.74 105.1 22.26V15.72H109.52V21.7C109.52 22.2333 109.66 22.66 109.94 22.98C110.233 23.2867 110.62 23.44 111.1 23.44C111.593 23.44 111.98 23.2867 112.26 22.98C112.54 22.66 112.68 22.2333 112.68 21.7V15.72H117.12ZM123.565 17.26C123.845 16.74 124.245 16.3333 124.765 16.04C125.298 15.7333 125.932 15.58 126.665 15.58C127.545 15.58 128.338 15.8133 129.045 16.28C129.752 16.7333 130.305 17.4 130.705 18.28C131.118 19.1467 131.325 20.1733 131.325 21.36C131.325 22.5467 131.118 23.58 130.705 24.46C130.305 25.3267 129.752 25.9933 129.045 26.46C128.338 26.9133 127.545 27.14 126.665 27.14C125.932 27.14 125.298 26.9933 124.765 26.7C124.245 26.3933 123.845 25.98 123.565 25.46V32.4H119.125V15.72H123.565V17.26ZM126.825 21.36C126.825 20.76 126.672 20.2933 126.365 19.96C126.058 19.6267 125.665 19.46 125.185 19.46C124.705 19.46 124.312 19.6267 124.005 19.96C123.698 20.2933 123.545 20.76 123.545 21.36C123.545 21.96 123.698 22.4267 124.005 22.76C124.312 23.0933 124.705 23.26 125.185 23.26C125.665 23.26 126.058 23.0933 126.365 22.76C126.672 22.4267 126.825 21.96 126.825 21.36Z" fill="white"/>
<rect width="40" height="40" rx="20" fill="white"/>
<path d="M18.5 9V12.5" stroke="#1B3864" stroke-width="2" stroke-miterlimit="10" stroke-linecap="square"/>
<path d="M13.5 10V13.5" stroke="#1B3864" stroke-width="2" stroke-miterlimit="10" stroke-linecap="square"/>
<path d="M23.5 10V13.5" stroke="#1B3864" stroke-width="2" stroke-miterlimit="10" stroke-linecap="square"/>
<path d="M27 19H31V23C31 24.1045 30.1045 25 29 25H27" stroke="#1B3864" stroke-width="2" stroke-miterlimit="10"/>
<path d="M21 31H16C12.6865 31 10 28.3135 10 25V17H27V25C27 28.3135 24.3135 31 21 31Z" stroke="#1B3864" stroke-width="2" stroke-miterlimit="10" stroke-linecap="square"/>
<path d="M22.5 21H17.5V26H22.5V21Z" stroke="#1B3864" stroke-width="2" stroke-miterlimit="10" stroke-linecap="square"/>
<path d="M20 17V21" stroke="#1B3864" stroke-width="2" stroke-miterlimit="10"/>
</svg>
