<svg width="198" height="61" viewBox="0 0 198 61" fill="none" xmlns="http://www.w3.org/2000/svg">
<path d="M93.4371 19.3132V24.6078H87.7815V40.6117H81.1032V24.6078H75.5078V19.3132H93.4371Z" fill="#1B3864"/>
<path d="M107.131 23.5248C109.076 23.5248 110.59 24.1766 111.673 25.4802C112.777 26.7837 113.328 28.5486 113.328 30.7747V40.6117H106.68V31.617C106.68 30.8148 106.459 30.1831 106.018 29.7218C105.597 29.2405 105.025 28.9998 104.303 28.9998C103.561 28.9998 102.98 29.2405 102.558 29.7218C102.137 30.1831 101.927 30.8148 101.927 31.617V40.6117H95.2484V18.3506H101.927V26.2322C102.448 25.43 103.14 24.7782 104.002 24.2769C104.885 23.7755 105.928 23.5248 107.131 23.5248Z" fill="#1B3864"/>
<path d="M132.649 31.978C132.649 32.4393 132.619 32.8805 132.559 33.3017H121.819C121.92 34.7657 122.531 35.4977 123.654 35.4977C124.376 35.4977 124.898 35.1668 125.219 34.505H132.288C132.047 35.7083 131.536 36.7912 130.754 37.7539C129.992 38.6965 129.019 39.4485 127.836 40.0101C126.673 40.5516 125.389 40.8223 123.985 40.8223C122.301 40.8223 120.796 40.4713 119.473 39.7694C118.169 39.0675 117.146 38.0647 116.404 36.7612C115.682 35.4375 115.321 33.8933 115.321 32.1284C115.321 30.3636 115.682 28.8294 116.404 27.5258C117.146 26.2022 118.169 25.1894 119.473 24.4874C120.796 23.7855 122.301 23.4345 123.985 23.4345C125.67 23.4345 127.164 23.7855 128.468 24.4874C129.791 25.1693 130.814 26.152 131.536 27.4355C132.278 28.7191 132.649 30.2332 132.649 31.978ZM125.88 30.3836C125.88 29.8221 125.7 29.4009 125.339 29.1202C124.978 28.8193 124.527 28.6689 123.985 28.6689C122.802 28.6689 122.11 29.2405 121.91 30.3836H125.88Z" fill="#1B3864"/>
<path d="M138.97 32.1284C138.97 30.3636 139.331 28.8294 140.053 27.5258C140.795 26.2022 141.818 25.1894 143.122 24.4874C144.445 23.7855 145.95 23.4345 147.634 23.4345C149.84 23.4345 151.695 24.0563 153.199 25.2997C154.724 26.5431 155.686 28.2678 156.087 30.4739H149.018C148.757 29.5915 148.246 29.1502 147.484 29.1502C146.942 29.1502 146.511 29.4009 146.19 29.9023C145.889 30.4037 145.739 31.1457 145.739 32.1284C145.739 33.1111 145.889 33.8532 146.19 34.3545C146.511 34.8559 146.942 35.1066 147.484 35.1066C148.246 35.1066 148.757 34.6654 149.018 33.783H156.087C155.686 35.989 154.724 37.7138 153.199 38.9572C151.695 40.2006 149.84 40.8223 147.634 40.8223C145.95 40.8223 144.445 40.4713 143.122 39.7694C141.818 39.0675 140.795 38.0647 140.053 36.7612C139.331 35.4375 138.97 33.8933 138.97 32.1284Z" fill="#1B3864"/>
<path d="M176.164 23.6451V40.6117H169.485V38.0246C168.964 38.8268 168.262 39.4786 167.38 39.98C166.517 40.4814 165.484 40.7321 164.281 40.7321C162.336 40.7321 160.812 40.0803 159.709 38.7767C158.626 37.4731 158.084 35.7083 158.084 33.4821V23.6451H164.732V32.6398C164.732 33.442 164.943 34.0838 165.364 34.5651C165.805 35.0264 166.387 35.257 167.109 35.257C167.851 35.257 168.433 35.0264 168.854 34.5651C169.275 34.0838 169.485 33.442 169.485 32.6398V23.6451H176.164Z" fill="#1B3864"/>
<path d="M185.858 25.9615C186.28 25.1793 186.881 24.5677 187.663 24.1264C188.466 23.6652 189.418 23.4345 190.521 23.4345C191.845 23.4345 193.038 23.7855 194.101 24.4874C195.164 25.1693 195.996 26.1721 196.598 27.4957C197.22 28.7993 197.53 30.3435 197.53 32.1284C197.53 33.9133 197.22 35.4676 196.598 36.7912C195.996 38.0948 195.164 39.0976 194.101 39.7995C193.038 40.4814 191.845 40.8223 190.521 40.8223C189.418 40.8223 188.466 40.6017 187.663 40.1605C186.881 39.6992 186.28 39.0775 185.858 38.2954V48.734H179.18V23.6451H185.858V25.9615ZM190.762 32.1284C190.762 31.226 190.531 30.524 190.07 30.0226C189.609 29.5213 189.017 29.2706 188.295 29.2706C187.573 29.2706 186.981 29.5213 186.52 30.0226C186.059 30.524 185.828 31.226 185.828 32.1284C185.828 33.0309 186.059 33.7328 186.52 34.2342C186.981 34.7356 187.573 34.9863 188.295 34.9863C189.017 34.9863 189.609 34.7356 190.07 34.2342C190.531 33.7328 190.762 33.0309 190.762 32.1284Z" fill="#1B3864"/>
<rect width="60.1653" height="60.1653" rx="30.0826" fill="#1B3864"/>
<g clip-path="url(#clip0)">
<path fill-rule="evenodd" clip-rule="evenodd" d="M29.3305 12.033V20.3057H26.3222V12.033H29.3305ZM21.8098 13.5371V21.8098H18.8016V13.5371H21.8098ZM36.8512 13.5371V21.8098H33.8429V13.5371H36.8512ZM13.5371 24.066H42.1156V27.0743H48.1321V34.5949C48.1321 37.087 46.1118 39.1073 43.6197 39.1073H42.009C41.279 44.2096 36.8907 48.1321 31.5867 48.1321H24.066C18.2514 48.1321 13.5371 43.4178 13.5371 37.6032V24.066ZM42.1156 36.0991H43.6197C44.4503 36.0991 45.1239 35.4255 45.1239 34.5949V30.0825H42.1156V36.0991ZM39.1073 27.0743H31.5867V30.0825H35.347V40.6115H24.8181V30.0825H28.5784V27.0743H16.5454V37.6032C16.5454 41.7564 19.9128 45.1239 24.066 45.1239H31.5867C35.7399 45.1239 39.1073 41.7564 39.1073 37.6032V27.0743ZM27.8264 33.0908V37.6032H32.3388V33.0908H27.8264Z" fill="white"/>
</g>
<defs>
<clipPath id="clip0">
<rect width="36.0992" height="36.0992" fill="white" transform="translate(12.0332 12.033)"/>
</clipPath>
</defs>
</svg>
