<svg width="11" height="20" viewBox="0 0 11 20" fill="none" xmlns="http://www.w3.org/2000/svg">
<path d="M10.4983 0.00416134L7.88169 0C4.94204 0 3.0423 1.9319 3.0423 4.92203V7.19141H0.411434C0.184096 7.19141 0 7.37409 0 7.59943V10.8875C0 11.1128 0.184306 11.2953 0.411434 11.2953H3.0423V19.5922C3.0423 19.8175 3.2264 20 3.45374 20H6.88627C7.11361 20 7.29771 19.8173 7.29771 19.5922V11.2953H10.3738C10.6011 11.2953 10.7852 11.1128 10.7852 10.8875L10.7865 7.59943C10.7865 7.49123 10.743 7.38762 10.666 7.31105C10.589 7.23448 10.484 7.19141 10.3749 7.19141H7.29771V5.26763C7.29771 4.34298 7.52001 3.87358 8.73521 3.87358L10.4979 3.87295C10.725 3.87295 10.9091 3.69027 10.9091 3.46514V0.411972C10.9091 0.187052 10.7252 0.00457747 10.4983 0.00416134Z" fill="white"/>
</svg>
